<svg preserveAspectRatio="none" width="100%" height="100%" overflow="visible" style="display: block;" viewBox="0 0 14.1287 14.1287" fill="none" xmlns="http://www.w3.org/2000/svg">
<path id="Vector" fill-rule="evenodd" clip-rule="evenodd" d="M7.06435 0C3.16283 0 0 3.16282 0 7.06435C0 10.9659 3.16282 14.1287 7.06435 14.1287C10.9659 14.1287 14.1287 10.9659 14.1287 7.06435C14.1287 3.16282 10.9658 0 7.06435 0ZM1.01334 7.06435C1.01334 3.72247 3.72248 1.01333 7.06435 1.01333C10.4062 1.01333 13.1154 3.72247 13.1154 7.06435C13.1154 10.4062 10.4062 13.1154 7.06435 13.1154C3.72248 13.1154 1.01334 10.4062 1.01334 7.06435ZM7.59759 3.86453C7.59759 3.56998 7.35881 3.3312 7.06426 3.3312C6.76971 3.3312 6.53092 3.56998 6.53092 3.86453V7.06453C6.53092 7.20598 6.58712 7.34164 6.68714 7.44166L8.82047 9.57499C9.02875 9.78324 9.36643 9.78324 9.57471 9.57499C9.78298 9.36672 9.78298 9.02902 9.57471 8.82074L7.59759 6.84362V3.86453Z" fill="var(--fill-0, #E1FF06)"/>
</svg>
