<svg width="13" height="12" viewBox="0 0 13 12" fill="none" xmlns="http://www.w3.org/2000/svg">
<rect width="13" height="13" fill="white" fill-opacity="0.01"/>
<path fill-rule="evenodd" clip-rule="evenodd" d="M2.16621 2.60007C1.92689 2.60007 1.73288 2.79408 1.73288 3.0334V8.2334C1.73288 8.47272 1.92689 8.66673 2.16621 8.66673H10.8329C11.0722 8.66673 11.2662 8.47272 11.2662 8.2334V3.0334C11.2662 2.79408 11.0722 2.60007 10.8329 2.60007H2.16621ZM0.866211 8.2334C0.866211 8.79942 1.22796 9.28094 1.73288 9.45939V9.96673C1.73288 10.6847 2.3149 11.2667 3.03288 11.2667H9.96621C10.6842 11.2667 11.2662 10.6847 11.2662 9.96673V9.45939C11.7711 9.28094 12.1329 8.79942 12.1329 8.2334V3.0334C12.1329 2.31543 11.5508 1.7334 10.8329 1.7334H2.16621C1.44824 1.7334 0.866211 2.31543 0.866211 3.0334V8.2334ZM10.3995 9.96673V9.5334H2.59954V9.96673C2.59954 10.206 2.79356 10.4001 3.03288 10.4001H9.96621C10.2055 10.4001 10.3995 10.206 10.3995 9.96673ZM4.76621 5.20007C4.52689 5.20007 4.33288 5.39408 4.33288 5.6334C4.33288 5.87272 4.52689 6.06673 4.76621 6.06673H8.23288C8.4722 6.06673 8.66621 5.87272 8.66621 5.6334C8.66621 5.39408 8.4722 5.20007 8.23288 5.20007H4.76621Z" fill="#E1FF06"/>
</svg>
