<svg width="12" height="14" viewBox="0 0 12 14" fill="none" xmlns="http://www.w3.org/2000/svg">
<path fill-rule="evenodd" clip-rule="evenodd" d="M1.6 1.06667C1.30545 1.06667 1.06667 1.30545 1.06667 1.6V12.2667C1.06667 12.5612 1.30545 12.8 1.6 12.8H10.1333C10.4278 12.8 10.6667 12.5612 10.6667 12.2667V3.95425L7.77908 1.06667H1.6ZM0 1.6C0 0.716341 0.716341 0 1.6 0H8C8.14145 0 8.27711 0.0561921 8.37712 0.156213L11.499 3.2781C11.6491 3.42814 11.7333 3.63162 11.7333 3.84379V12.2667C11.7333 13.1503 11.017 13.8667 10.1333 13.8667H1.6C0.716341 13.8667 0 13.1503 0 12.2667V1.6ZM2.93333 6.93333C2.93333 6.63878 3.17212 6.4 3.46667 6.4H5.33333V4.53333C5.33333 4.23878 5.57212 4 5.86667 4C6.16122 4 6.4 4.23878 6.4 4.53333V6.4H8.26667C8.56117 6.4 8.8 6.63878 8.8 6.93333C8.8 7.22788 8.56117 7.46667 8.26667 7.46667H6.4V9.33333C6.4 9.62784 6.16122 9.86667 5.86667 9.86667C5.57212 9.86667 5.33333 9.62784 5.33333 9.33333V7.46667H3.46667C3.17212 7.46667 2.93333 7.22788 2.93333 6.93333Z" fill="white" fill-opacity="0.55"/>
</svg>
