<svg width="13" height="13" viewBox="0 0 13 13" fill="none" xmlns="http://www.w3.org/2000/svg">
<path d="M7.25 6.49733C7.25 6.64567 7.20601 6.79067 7.1236 6.91401C7.04119 7.03735 6.92406 7.13348 6.78701 7.19024C6.64997 7.24701 6.49917 7.26186 6.35368 7.23292C6.2082 7.20398 6.07456 7.13255 5.96967 7.02766C5.86478 6.92277 5.79335 6.78914 5.76441 6.64365C5.73547 6.49817 5.75032 6.34737 5.80709 6.21032C5.86386 6.07328 5.95999 5.95614 6.08332 5.87373C6.20666 5.79132 6.35166 5.74733 6.5 5.74733C6.69891 5.74733 6.88968 5.82635 7.03033 5.967C7.17098 6.10766 7.25 6.29842 7.25 6.49733ZM3.75 5.74733C3.60166 5.74733 3.45666 5.79132 3.33332 5.87373C3.20999 5.95614 3.11386 6.07328 3.05709 6.21032C3.00032 6.34737 2.98547 6.49817 3.01441 6.64365C3.04335 6.78914 3.11478 6.92277 3.21967 7.02766C3.32456 7.13255 3.4582 7.20398 3.60368 7.23292C3.74917 7.26186 3.89997 7.24701 4.03701 7.19024C4.17406 7.13348 4.29119 7.03735 4.3736 6.91401C4.45601 6.79067 4.5 6.64567 4.5 6.49733C4.5 6.29842 4.42098 6.10766 4.28033 5.967C4.13968 5.82635 3.94891 5.74733 3.75 5.74733ZM9.25 5.74733C9.10166 5.74733 8.95666 5.79132 8.83332 5.87373C8.70999 5.95614 8.61386 6.07328 8.55709 6.21032C8.50033 6.34737 8.48547 6.49817 8.51441 6.64365C8.54335 6.78914 8.61478 6.92277 8.71967 7.02766C8.82456 7.13255 8.9582 7.20398 9.10368 7.23292C9.24917 7.26186 9.39997 7.24701 9.53701 7.19024C9.67406 7.13348 9.79119 7.03735 9.8736 6.91401C9.95601 6.79067 10 6.64567 10 6.49733C10 6.29842 9.92098 6.10766 9.78033 5.967C9.63968 5.82635 9.44891 5.74733 9.25 5.74733ZM13 6.49733C13.0002 7.61954 12.7099 8.7227 12.1574 9.69943C11.6048 10.6762 10.8087 11.4932 9.84669 12.071C8.88466 12.6488 7.78942 12.9677 6.66759 12.9966C5.54575 13.0255 4.43554 12.7635 3.445 12.2361L1.31687 12.9455C1.14068 13.0042 0.951599 13.0127 0.770829 12.9701C0.590059 12.9274 0.424742 12.8353 0.293407 12.7039C0.162072 12.5726 0.0699091 12.4073 0.0272484 12.2265C-0.0154122 12.0457 -0.00688479 11.8567 0.0518748 11.6805L0.76125 9.55233C0.297593 8.6806 0.0386232 7.7147 0.00399834 6.72794C-0.0306265 5.74118 0.160003 4.7595 0.561418 3.85742C0.962833 2.95533 1.56448 2.15655 2.3207 1.5217C3.07691 0.886857 3.96782 0.432632 4.92579 0.193506C5.88376 -0.0456203 6.88362 -0.0633622 7.84948 0.141627C8.81533 0.346615 9.72179 0.768947 10.5001 1.37657C11.2783 1.98418 11.9079 2.76112 12.3411 3.64839C12.7743 4.53567 12.9996 5.50997 13 6.49733ZM12 6.49733C11.9998 5.65366 11.8054 4.82135 11.4321 4.0648C11.0587 3.30825 10.5163 2.64773 9.84676 2.13435C9.17726 1.62098 8.39863 1.2685 7.57111 1.1042C6.74359 0.939898 5.88936 0.968171 5.07452 1.18683C4.25968 1.40549 3.50606 1.80868 2.87197 2.3652C2.23788 2.92173 1.74032 3.61666 1.41779 4.39625C1.09525 5.17583 0.956387 6.01917 1.01193 6.86101C1.06748 7.70286 1.31595 8.52064 1.73812 9.25108C1.77356 9.31241 1.79556 9.38056 1.80267 9.45103C1.80978 9.52149 1.80184 9.59267 1.77937 9.65983L1 11.9973L3.3375 11.218C3.38841 11.2006 3.44183 11.1917 3.49562 11.1917C3.58344 11.1919 3.66966 11.2151 3.74562 11.2592C4.58175 11.743 5.53054 11.998 6.49653 11.9986C7.46251 11.9992 8.41162 11.7454 9.24836 11.2627C10.0851 10.78 10.7799 10.0854 11.263 9.24887C11.746 8.41233 12.0002 7.46332 12 6.49733Z" fill="#E1FF06"/>
</svg>
