<svg xmlns="http://www.w3.org/2000/svg">
    <symbol id="icon-logo" viewBox="0 0 22 26" fill="none" xmlns="http://www.w3.org/2000/svg">
        <path d="M1 15.6667L13.5 1V10.3333H21L8.5 25V15.6667H1Z" stroke="currentColor" stroke-width="2" stroke-linecap="round" stroke-linejoin="round"/>
    </symbol>

    <symbol id="icon-google" xmlns="http://www.w3.org/2000/svg" xmlns:xlink="http://www.w3.org/1999/xlink" viewBox="0,0,256,256" fill-rule="nonzero">
        <g fill-opacity="0" fill="#dddddd" fill-rule="nonzero" stroke="none" stroke-width="1" stroke-linecap="butt" stroke-linejoin="miter" stroke-miterlimit="10" stroke-dasharray="" stroke-dashoffset="0" font-family="none" font-weight="none" font-size="none" text-anchor="none" style="mix-blend-mode: normal">
            <path d="M0,256v-256h256v256z" id="bgRectangle"></path>
        </g>
        <g fill="none" fill-rule="nonzero" stroke="none" stroke-width="1" stroke-linecap="butt" stroke-linejoin="miter" stroke-miterlimit="10" stroke-dasharray="" stroke-dashoffset="0" font-family="none" font-weight="none" font-size="none" text-anchor="none" style="mix-blend-mode: normal">
            <g transform="scale(5.33333,5.33333)">
            <path d="M43.611,20.083h-1.611v-0.083h-18v8h11.303c-1.649,4.657 -6.08,8 -11.303,8c-6.627,0 -12,-5.373 -12,-12c0,-6.627 5.373,-12 12,-12c3.059,0 5.842,1.154 7.961,3.039l5.657,-5.657c-3.572,-3.329 -8.35,-5.382 -13.618,-5.382c-11.045,0 -20,8.955 -20,20c0,11.045 8.955,20 20,20c11.045,0 20,-8.955 20,-20c0,-1.341 -0.138,-2.65 -0.389,-3.917z" fill="#ffc107"></path>
            <path d="M6.306,14.691l6.571,4.819c1.778,-4.402 6.084,-7.51 11.123,-7.51c3.059,0 5.842,1.154 7.961,3.039l5.657,-5.657c-3.572,-3.329 -8.35,-5.382 -13.618,-5.382c-7.682,0 -14.344,4.337 -17.694,10.691z" fill="#ff3d00"></path>
            <path d="M24,44c5.166,0 9.86,-1.977 13.409,-5.192l-6.19,-5.238c-2.008,1.521 -4.504,2.43 -7.219,2.43c-5.202,0 -9.619,-3.317 -11.283,-7.946l-6.522,5.025c3.31,6.477 10.032,10.921 17.805,10.921z" fill="#4caf50"></path>
            <path d="M43.611,20.083h-1.611v-0.083h-18v8h11.303c-0.792,2.237 -2.231,4.166 -4.087,5.571c0.001,-0.001 0.002,-0.001 0.003,-0.002l6.19,5.238c-0.438,0.398 6.591,-4.807 6.591,-14.807c0,-1.341 -0.138,-2.65 -0.389,-3.917z" fill="#1976d2"></path>
        </g></g>
    </symbol>

    <symbol id="icon-aba" viewBox="0 0 20 19" fill="none" xmlns="http://www.w3.org/2000/svg">
        <path
          d="M17 0C18.6568 0 20 1.34319 20 3V15.5703C20 17.1754 18.7394 18.4861 17.1543 18.5664L17 18.5703H3L2.8457 18.5664C1.26057 18.4861 0 17.1754 0 15.5703V3C4.65585e-05 1.34319 1.34317 6.44243e-08 3 0H17ZM3 2C2.44774 2 2.00005 2.44776 2 3V15.5703C2 16.1226 2.44772 16.5703 3 16.5703H5.71387V2H3ZM7.71387 16.5703H17C17.5523 16.5703 18 16.1226 18 15.5703V3C18 2.44775 17.5523 2 17 2H7.71387V16.5703Z"
          fill="#0C4288" />
    </symbol>

    <symbol id="icone-dolar" viewBox="0 0 11 18" fill="none" xmlns="http://www.w3.org/2000/svg">
        <path d="M5.48 7.9C3.21 7.31 2.48 6.7 2.48 5.75C2.48 4.66 3.49 3.9 5.18 3.9C6.96 3.9 7.62 4.75 7.68 6H9.89C9.82 4.28 8.77 2.7 6.68 2.19V0H3.68V2.16C1.74 2.58 0.18 3.84 0.18 5.77C0.18 8.08 2.09 9.23 4.88 9.9C7.38 10.5 7.88 11.38 7.88 12.31C7.88 13 7.39 14.1 5.18 14.1C3.12 14.1 2.31 13.18 2.2 12H0C0.12 14.19 1.76 15.42 3.68 15.83V18H6.68V15.85C8.63 15.48 10.18 14.35 10.18 12.3C10.18 9.46 7.75 8.49 5.48 7.9Z" fill="#0D99FF"/>
    </symbol>

    <symbol id="icon-pizza" viewBox="0 0 16 16" fill="none" xmlns="http://www.w3.org/2000/svg">
        <path d="M7.25006 8.71484H15.9649C15.8225 10.2264 15.2525 11.6664 14.3223 12.8662C13.392 14.0661 12.1394 14.9767 10.711 15.4912C9.37192 15.9735 7.93008 16.0893 6.53424 15.8291L6.25592 15.7725C4.86689 15.4621 3.58699 14.787 2.54791 13.8193L2.34283 13.6221C1.26928 12.5485 0.523557 11.1907 0.192444 9.70898C-0.117884 8.31989 -0.0515505 6.87462 0.381897 5.52246L0.473694 5.25391C0.956088 3.91469 1.78636 2.7297 2.87701 1.82031L3.09869 1.64258C4.29859 0.712336 5.7385 0.142399 7.25006 0V8.71484ZM6.25006 1.1875C5.33161 1.42468 4.46676 1.84668 3.711 2.43262C2.66116 3.24661 1.86432 4.34294 1.41412 5.59277C0.964063 6.84254 0.879344 8.19484 1.16901 9.49121C1.4587 10.7874 2.11078 11.9748 3.04987 12.9141C3.98926 13.8534 5.17719 14.5062 6.47369 14.7959C7.77012 15.0856 9.12232 15.0009 10.3721 14.5508C11.6219 14.1006 12.7183 13.3037 13.5323 12.2539C14.1181 11.4983 14.5392 10.6331 14.7764 9.71484H7.25006C6.69788 9.71482 6.25019 9.267 6.25006 8.71484V1.1875ZM8.75006 0C10.6045 0.174574 12.3402 0.990539 13.6573 2.30762C14.9743 3.62469 15.7903 5.36046 15.9649 7.21484H8.75006V0ZM9.75006 6.21484H14.7764C14.4655 5.01079 13.839 3.90344 12.9503 3.01465C12.0614 2.12584 10.9542 1.49942 9.75006 1.18848V6.21484Z" fill="#B31515"/>
    </symbol>

    <symbol id="icon-grafico" viewBox="0 0 18 18" fill="none" xmlns="http://www.w3.org/2000/svg">
        <path d="M16.75 16.75H0.75V0.75" stroke="#0D99FF" stroke-width="1.5" stroke-linecap="round" stroke-linejoin="round"/>
        <path d="M0.75 13.25L8.75 5.75L11.75 8.75L16.25 4.25" stroke="#0D99FF" stroke-width="1.5" stroke-linecap="round" stroke-linejoin="round"/>
    </symbol>

    <symbol id="icon-vetor" viewBox="0 0 14 14" fill="none" xmlns="http://www.w3.org/2000/svg">
        <path fill-rule="evenodd" clip-rule="evenodd" d="M0.5 14H14V13H1V0H0V13.5L0.5 14ZM2 11.5V3.5L2.5 3H4.5L5 3.5V11.5L4.5 12H2.5L2 11.5ZM4 11V4H3V11H4ZM10 1.5V11.5L10.5 12H12.5L13 11.5V1.5L12.5 1H10.5L10 1.5ZM12 2V11H11V2H12ZM6 11.5V5.5L6.5 5H8.5L9 5.5V11.5L8.5 12H6.5L6 11.5ZM8 11V6H7V11H8Z" fill="#14AE5C"/>
    </symbol>



    <symbol id="icon-profile" viewBox="10 9 20 21" fill="none" xmlns="http://www.w3.org/2000/svg">
        <path fill-rule="evenodd" clip-rule="evenodd" d="M28 28V27.25C28 24.9028 26.0972 23 23.75 23H16.25C13.9028 23 12 24.9028 12 27.25V28" fill="#3B695B" fill-opacity="0.12"/>
        <path d="M28 28V27.25C28 24.9028 26.0972 23 23.75 23H16.25C13.9028 23 12 24.9028 12 27.25V28" stroke="currentColor" stroke-linecap="round" stroke-linejoin="round"/>
        <circle cx="20" cy="15" r="4" stroke="currentColor" stroke-linecap="round" stroke-linejoin="round"/>
    </symbol>

    <symbol id="icon-logout" viewBox="4 0 20 24" fill="none" xmlns="http://www.w3.org/2000/svg">
        <path d="M3 12H15.5" stroke="currentColor" stroke-linecap="round" stroke-linejoin="round"/>
        <path d="M8 8.00005V6.33388C7.99998 5.35618 8.70681 4.52178 9.6712 4.36105L17.6712 3.02772C18.2511 2.93106 18.8442 3.09446 19.2928 3.47447C19.7413 3.85449 20 4.41263 20 5.00054V18.9995C20 19.5874 19.7413 20.1456 19.2928 20.5256C18.8442 20.9056 18.2511 21.069 17.6712 20.9723L9.6712 19.639C8.70683 19.4783 8 18.6439 8 17.6662V16" stroke="currentColor" stroke-linecap="round" stroke-linejoin="round"/>
        <path d="M12.5 9L15.5 12L12.5 15" stroke="currentColor" stroke-linecap="round" stroke-linejoin="round"/>
    </symbol>

    <symbol id="icon-attach-doc" viewBox="0 0 13 16" fill="none" xmlns="http://www.w3.org/2000/svg">
        <path d="M2.39607 16H10.6039C12.2039 16 13 15.2164 13 13.6642V6.88812C13 5.92525 12.8918 5.5075 12.2735 4.89552L8.00703 0.709095C7.42005 0.126726 6.94057 0 6.06735 0H2.39607C0.803968 0 0 0.790925 0 2.34348V13.6642C0 15.2237 0.803968 16 2.39607 16ZM2.45774 14.7986C1.66169 14.7986 1.2442 14.3879 1.2442 13.6419V2.36577C1.2442 1.62706 1.66169 1.20135 2.46565 1.20135H5.89719V5.53743C5.89719 6.47769 6.39184 6.94034 7.35013 6.94034H11.7558V13.6419C11.7558 14.3879 11.3459 14.7986 10.5423 14.7986H2.45774ZM7.4893 5.81317C7.18789 5.81317 7.0639 5.69409 7.0639 5.39542V1.43284L11.5157 5.81349L7.4893 5.81317Z" fill="currentColor"/>
    </symbol>

    <symbol id="icon-attach-img" viewBox="0 0 17 14" fill="none" xmlns="http://www.w3.org/2000/svg">
        <path d="M14.3245 3.08698C14.8229 3.08698 15.227 2.61979 15.227 2.04349C15.227 1.46719 14.8229 1 14.3245 1C13.8261 1 13.4221 1.46719 13.4221 2.04349C13.4221 2.61979 13.8261 3.08698 14.3245 3.08698Z" stroke="currentColor" stroke-width="2" stroke-linecap="round"/>
        <path d="M1.72356 12.9997H11.5847C11.7167 12.9997 11.8463 12.9577 11.9592 12.8785C12.072 12.7992 12.164 12.6857 12.2249 12.5502C12.2859 12.4147 12.3135 12.2625 12.3049 12.1101C12.2962 11.9577 12.2515 11.811 12.1758 11.686L7.24477 3.54153C7.17818 3.43173 7.08969 3.3421 6.9868 3.28022C6.88391 3.21834 6.76964 3.18604 6.65366 3.18604C6.53768 3.18604 6.42341 3.21834 6.32052 3.28022C6.21763 3.3421 6.12914 3.43173 6.06256 3.54153L1.13065 11.686C1.05483 11.8111 1.01017 11.9579 1.00154 12.1104C0.99291 12.2629 1.02064 12.4151 1.0817 12.5507C1.14276 12.6862 1.23482 12.7997 1.34784 12.8789C1.46087 12.9581 1.59051 12.9999 1.72266 12.9997H1.72356Z" stroke="currentColor" stroke-width="2" stroke-linecap="round"/>
        <path d="M7.55609 12.9999H15.2784C15.4072 12.9998 15.5337 12.9599 15.6447 12.8842C15.7557 12.8086 15.8471 12.6999 15.9096 12.5696C15.972 12.4393 16.0031 12.292 15.9997 12.1431C15.9963 11.9942 15.9585 11.849 15.8902 11.7227L12.6802 5.78524C12.6153 5.66536 12.5251 5.56653 12.418 5.49801C12.311 5.4295 12.1907 5.39355 12.0684 5.39355C11.946 5.39355 11.8257 5.4295 11.7187 5.49801C11.6116 5.56653 11.5214 5.66536 11.4565 5.78524L10.1389 8.22179" stroke="currentColor" stroke-width="2" stroke-linecap="round"/>
    </symbol>

    <symbol id="icon-attach-chart" viewBox="0 0 15 14" fill="none" xmlns="http://www.w3.org/2000/svg">
        <path d="M10.5 6.82889L13.68 1.12778L14.9775 1.90556L11.055 8.94444L6.1725 6.02778L2.595 12.4444H15V14H0V0H1.5V11.3089L5.625 3.88889L10.5 6.82889Z" fill="currentColor"/>
    </symbol>

    <symbol id="icon-log" viewBox="0 0 64 64" fill="none" xmlns="http://www.w3.org/2000/svg">
        <rect width="64" height="64" rx="10" fill="#0D2B50"/>
        <path d="M22.1568 18L20.6482 19.4804L22.8929 21.6852L24.3993 20.2048L22.1568 18ZM41.8443 18L39.5996 20.2048L41.1071 21.6852L43.3507 19.4814L41.8443 18ZM32 18.657C31.6464 18.6598 31.2893 18.6823 30.9286 18.7244H30.8964C26.5507 19.214 23.0921 22.6644 22.4911 26.916C22.0111 30.338 23.4468 33.4409 25.8393 35.4393C26.8178 36.2602 27.4797 37.3865 27.7143 38.6296V44.9471H30.1571C30.53 45.5757 31.2104 46 32 46C32.7896 46 33.47 45.5757 33.8429 44.9471H36.2857V40.7355H36.3864V39.4846C36.3864 37.941 37.2029 36.3848 38.5293 35.175C40.3036 33.4293 41.6429 30.9497 41.6429 28.1016C41.6429 22.9002 37.2864 18.6086 32 18.657ZM32 20.7628C36.1411 20.706 39.5 24.0374 39.5 28.1016C39.5 30.3064 38.4607 32.248 37.0218 33.661L37.0561 33.6947C35.6267 34.9909 34.7022 36.7365 34.4418 38.6307H29.7554C29.5196 36.826 28.7321 35.0792 27.2439 33.8263C25.3507 32.2469 24.2225 29.8673 24.5996 27.1803C25.0679 23.8636 27.8064 21.1966 31.1621 20.8313C31.4392 20.7935 31.7182 20.771 31.9979 20.7639L32 20.7628ZM17 28.1016V30.2074H20.2143V28.1016H17ZM43.7857 28.1016V30.2074H47V28.1016H43.7857ZM22.8929 36.6238L20.6493 38.8276L22.1568 40.309L24.3982 38.1042L22.8929 36.6238ZM41.1071 36.6238L39.6007 38.1042L41.8432 40.309L43.3507 38.8276L41.1071 36.6238ZM29.8571 40.7365H34.1429V42.8423H29.8571V40.7365Z" fill="#0D99FF"/>
    </symbol>

</svg>
