<svg xmlns="http://www.w3.org/2000/svg">
    <symbol id="icon-logo" viewBox="0 0 22 26" fill="none" xmlns="http://www.w3.org/2000/svg">
        <path d="M1 15.6667L13.5 1V10.3333H21L8.5 25V15.6667H1Z" stroke="currentColor" stroke-width="2" stroke-linecap="round" stroke-linejoin="round"/>
    </symbol>

    <symbol id="icon-google" xmlns="http://www.w3.org/2000/svg" xmlns:xlink="http://www.w3.org/1999/xlink" viewBox="0,0,256,256" fill-rule="nonzero">
        <g fill-opacity="0" fill="#dddddd" fill-rule="nonzero" stroke="none" stroke-width="1" stroke-linecap="butt" stroke-linejoin="miter" stroke-miterlimit="10" stroke-dasharray="" stroke-dashoffset="0" font-family="none" font-weight="none" font-size="none" text-anchor="none" style="mix-blend-mode: normal">
            <path d="M0,256v-256h256v256z" id="bgRectangle"></path>
        </g>
        <g fill="none" fill-rule="nonzero" stroke="none" stroke-width="1" stroke-linecap="butt" stroke-linejoin="miter" stroke-miterlimit="10" stroke-dasharray="" stroke-dashoffset="0" font-family="none" font-weight="none" font-size="none" text-anchor="none" style="mix-blend-mode: normal">
            <g transform="scale(5.33333,5.33333)">
            <path d="M43.611,20.083h-1.611v-0.083h-18v8h11.303c-1.649,4.657 -6.08,8 -11.303,8c-6.627,0 -12,-5.373 -12,-12c0,-6.627 5.373,-12 12,-12c3.059,0 5.842,1.154 7.961,3.039l5.657,-5.657c-3.572,-3.329 -8.35,-5.382 -13.618,-5.382c-11.045,0 -20,8.955 -20,20c0,11.045 8.955,20 20,20c11.045,0 20,-8.955 20,-20c0,-1.341 -0.138,-2.65 -0.389,-3.917z" fill="#ffc107"></path>
            <path d="M6.306,14.691l6.571,4.819c1.778,-4.402 6.084,-7.51 11.123,-7.51c3.059,0 5.842,1.154 7.961,3.039l5.657,-5.657c-3.572,-3.329 -8.35,-5.382 -13.618,-5.382c-7.682,0 -14.344,4.337 -17.694,10.691z" fill="#ff3d00"></path>
            <path d="M24,44c5.166,0 9.86,-1.977 13.409,-5.192l-6.19,-5.238c-2.008,1.521 -4.504,2.43 -7.219,2.43c-5.202,0 -9.619,-3.317 -11.283,-7.946l-6.522,5.025c3.31,6.477 10.032,10.921 17.805,10.921z" fill="#4caf50"></path>
            <path d="M43.611,20.083h-1.611v-0.083h-18v8h11.303c-0.792,2.237 -2.231,4.166 -4.087,5.571c0.001,-0.001 0.002,-0.001 0.003,-0.002l6.19,5.238c-0.438,0.398 6.591,-4.807 6.591,-14.807c0,-1.341 -0.138,-2.65 -0.389,-3.917z" fill="#1976d2"></path>
        </g></g>
    </symbol>

    <symbol id="icon-aba" viewBox="0 0 20 19" fill="none" xmlns="http://www.w3.org/2000/svg">
        <path
          d="M17 0C18.6568 0 20 1.34319 20 3V15.5703C20 17.1754 18.7394 18.4861 17.1543 18.5664L17 18.5703H3L2.8457 18.5664C1.26057 18.4861 0 17.1754 0 15.5703V3C4.65585e-05 1.34319 1.34317 6.44243e-08 3 0H17ZM3 2C2.44774 2 2.00005 2.44776 2 3V15.5703C2 16.1226 2.44772 16.5703 3 16.5703H5.71387V2H3ZM7.71387 16.5703H17C17.5523 16.5703 18 16.1226 18 15.5703V3C18 2.44775 17.5523 2 17 2H7.71387V16.5703Z"
          fill="#0C4288" />
    </svg>
</svg>
