<svg xmlns="http://www.w3.org/2000/svg">
    <symbol id="icon-logo" viewBox="0 0 22 26" fill="none" xmlns="http://www.w3.org/2000/svg">
        <path d="M1 15.6667L13.5 1V10.3333H21L8.5 25V15.6667H1Z" stroke="currentColor" stroke-width="2" stroke-linecap="round" stroke-linejoin="round"/>
    </symbol>

    <symbol id="icon-google" xmlns="http://www.w3.org/2000/svg" xmlns:xlink="http://www.w3.org/1999/xlink" viewBox="0,0,256,256" fill-rule="nonzero">
        <g fill-opacity="0" fill="#dddddd" fill-rule="nonzero" stroke="none" stroke-width="1" stroke-linecap="butt" stroke-linejoin="miter" stroke-miterlimit="10" stroke-dasharray="" stroke-dashoffset="0" font-family="none" font-weight="none" font-size="none" text-anchor="none" style="mix-blend-mode: normal">
            <path d="M0,256v-256h256v256z" id="bgRectangle"></path>
        </g>
        <g fill="none" fill-rule="nonzero" stroke="none" stroke-width="1" stroke-linecap="butt" stroke-linejoin="miter" stroke-miterlimit="10" stroke-dasharray="" stroke-dashoffset="0" font-family="none" font-weight="none" font-size="none" text-anchor="none" style="mix-blend-mode: normal">
            <g transform="scale(5.33333,5.33333)">
            <path d="M43.611,20.083h-1.611v-0.083h-18v8h11.303c-1.649,4.657 -6.08,8 -11.303,8c-6.627,0 -12,-5.373 -12,-12c0,-6.627 5.373,-12 12,-12c3.059,0 5.842,1.154 7.961,3.039l5.657,-5.657c-3.572,-3.329 -8.35,-5.382 -13.618,-5.382c-11.045,0 -20,8.955 -20,20c0,11.045 8.955,20 20,20c11.045,0 20,-8.955 20,-20c0,-1.341 -0.138,-2.65 -0.389,-3.917z" fill="#ffc107"></path>
            <path d="M6.306,14.691l6.571,4.819c1.778,-4.402 6.084,-7.51 11.123,-7.51c3.059,0 5.842,1.154 7.961,3.039l5.657,-5.657c-3.572,-3.329 -8.35,-5.382 -13.618,-5.382c-7.682,0 -14.344,4.337 -17.694,10.691z" fill="#ff3d00"></path>
            <path d="M24,44c5.166,0 9.86,-1.977 13.409,-5.192l-6.19,-5.238c-2.008,1.521 -4.504,2.43 -7.219,2.43c-5.202,0 -9.619,-3.317 -11.283,-7.946l-6.522,5.025c3.31,6.477 10.032,10.921 17.805,10.921z" fill="#4caf50"></path>
            <path d="M43.611,20.083h-1.611v-0.083h-18v8h11.303c-0.792,2.237 -2.231,4.166 -4.087,5.571c0.001,-0.001 0.002,-0.001 0.003,-0.002l6.19,5.238c-0.438,0.398 6.591,-4.807 6.591,-14.807c0,-1.341 -0.138,-2.65 -0.389,-3.917z" fill="#1976d2"></path>
        </g></g>
    </symbol>

    <symbol id="icon-aba" viewBox="0 0 20 19" fill="none" xmlns="http://www.w3.org/2000/svg">
        <path
          d="M17 0C18.6568 0 20 1.34319 20 3V15.5703C20 17.1754 18.7394 18.4861 17.1543 18.5664L17 18.5703H3L2.8457 18.5664C1.26057 18.4861 0 17.1754 0 15.5703V3C4.65585e-05 1.34319 1.34317 6.44243e-08 3 0H17ZM3 2C2.44774 2 2.00005 2.44776 2 3V15.5703C2 16.1226 2.44772 16.5703 3 16.5703H5.71387V2H3ZM7.71387 16.5703H17C17.5523 16.5703 18 16.1226 18 15.5703V3C18 2.44775 17.5523 2 17 2H7.71387V16.5703Z"
          fill="#0C4288" />
    </symbol>

    <symbol id="icone-dolar" viewBox="0 0 11 18" fill="none" xmlns="http://www.w3.org/2000/svg">
        <path d="M5.48 7.9C3.21 7.31 2.48 6.7 2.48 5.75C2.48 4.66 3.49 3.9 5.18 3.9C6.96 3.9 7.62 4.75 7.68 6H9.89C9.82 4.28 8.77 2.7 6.68 2.19V0H3.68V2.16C1.74 2.58 0.18 3.84 0.18 5.77C0.18 8.08 2.09 9.23 4.88 9.9C7.38 10.5 7.88 11.38 7.88 12.31C7.88 13 7.39 14.1 5.18 14.1C3.12 14.1 2.31 13.18 2.2 12H0C0.12 14.19 1.76 15.42 3.68 15.83V18H6.68V15.85C8.63 15.48 10.18 14.35 10.18 12.3C10.18 9.46 7.75 8.49 5.48 7.9Z" fill="#0D99FF"/>
    </symbol>

    <symbol id="icon-pizza" viewBox="0 0 16 16" fill="none" xmlns="http://www.w3.org/2000/svg">
        <path d="M7.25006 8.71484H15.9649C15.8225 10.2264 15.2525 11.6664 14.3223 12.8662C13.392 14.0661 12.1394 14.9767 10.711 15.4912C9.37192 15.9735 7.93008 16.0893 6.53424 15.8291L6.25592 15.7725C4.86689 15.4621 3.58699 14.787 2.54791 13.8193L2.34283 13.6221C1.26928 12.5485 0.523557 11.1907 0.192444 9.70898C-0.117884 8.31989 -0.0515505 6.87462 0.381897 5.52246L0.473694 5.25391C0.956088 3.91469 1.78636 2.7297 2.87701 1.82031L3.09869 1.64258C4.29859 0.712336 5.7385 0.142399 7.25006 0V8.71484ZM6.25006 1.1875C5.33161 1.42468 4.46676 1.84668 3.711 2.43262C2.66116 3.24661 1.86432 4.34294 1.41412 5.59277C0.964063 6.84254 0.879344 8.19484 1.16901 9.49121C1.4587 10.7874 2.11078 11.9748 3.04987 12.9141C3.98926 13.8534 5.17719 14.5062 6.47369 14.7959C7.77012 15.0856 9.12232 15.0009 10.3721 14.5508C11.6219 14.1006 12.7183 13.3037 13.5323 12.2539C14.1181 11.4983 14.5392 10.6331 14.7764 9.71484H7.25006C6.69788 9.71482 6.25019 9.267 6.25006 8.71484V1.1875ZM8.75006 0C10.6045 0.174574 12.3402 0.990539 13.6573 2.30762C14.9743 3.62469 15.7903 5.36046 15.9649 7.21484H8.75006V0ZM9.75006 6.21484H14.7764C14.4655 5.01079 13.839 3.90344 12.9503 3.01465C12.0614 2.12584 10.9542 1.49942 9.75006 1.18848V6.21484Z" fill="#B31515"/>
    </symbol>

    <symbol id="icon-grafico" viewBox="0 0 18 18" fill="none" xmlns="http://www.w3.org/2000/svg">
        <path d="M16.75 16.75H0.75V0.75" stroke="#0D99FF" stroke-width="1.5" stroke-linecap="round" stroke-linejoin="round"/>
        <path d="M0.75 13.25L8.75 5.75L11.75 8.75L16.25 4.25" stroke="#0D99FF" stroke-width="1.5" stroke-linecap="round" stroke-linejoin="round"/>
    </symbol>

    <symbol id="icon-vetor" viewBox="0 0 14 14" fill="none" xmlns="http://www.w3.org/2000/svg">
        <path fill-rule="evenodd" clip-rule="evenodd" d="M0.5 14H14V13H1V0H0V13.5L0.5 14ZM2 11.5V3.5L2.5 3H4.5L5 3.5V11.5L4.5 12H2.5L2 11.5ZM4 11V4H3V11H4ZM10 1.5V11.5L10.5 12H12.5L13 11.5V1.5L12.5 1H10.5L10 1.5ZM12 2V11H11V2H12ZM6 11.5V5.5L6.5 5H8.5L9 5.5V11.5L8.5 12H6.5L6 11.5ZM8 11V6H7V11H8Z" fill="#14AE5C"/>
    </symbol>



    <symbol id="icon-log" viewBox="0 0 64 64" fill="none" xmlns="http://www.w3.org/2000/svg">
        <rect width="64" height="64" rx="10" fill="#0D2B50"/>
        <path d="M22.1568 18L20.6482 19.4804L22.8929 21.6852L24.3993 20.2048L22.1568 18ZM41.8443 18L39.5996 20.2048L41.1071 21.6852L43.3507 19.4814L41.8443 18ZM32 18.657C31.6464 18.6598 31.2893 18.6823 30.9286 18.7244H30.8964C26.5507 19.214 23.0921 22.6644 22.4911 26.916C22.0111 30.338 23.4468 33.4409 25.8393 35.4393C26.8178 36.2602 27.4797 37.3865 27.7143 38.6296V44.9471H30.1571C30.53 45.5757 31.2104 46 32 46C32.7896 46 33.47 45.5757 33.8429 44.9471H36.2857V40.7355H36.3864V39.4846C36.3864 37.941 37.2029 36.3848 38.5293 35.175C40.3036 33.4293 41.6429 30.9497 41.6429 28.1016C41.6429 22.9002 37.2864 18.6086 32 18.657ZM32 20.7628C36.1411 20.706 39.5 24.0374 39.5 28.1016C39.5 30.3064 38.4607 32.248 37.0218 33.661L37.0561 33.6947C35.6267 34.9909 34.7022 36.7365 34.4418 38.6307H29.7554C29.5196 36.826 28.7321 35.0792 27.2439 33.8263C25.3507 32.2469 24.2225 29.8673 24.5996 27.1803C25.0679 23.8636 27.8064 21.1966 31.1621 20.8313C31.4392 20.7935 31.7182 20.771 31.9979 20.7639L32 20.7628ZM17 28.1016V30.2074H20.2143V28.1016H17ZM43.7857 28.1016V30.2074H47V28.1016H43.7857ZM22.8929 36.6238L20.6493 38.8276L22.1568 40.309L24.3982 38.1042L22.8929 36.6238ZM41.1071 36.6238L39.6007 38.1042L41.8432 40.309L43.3507 38.8276L41.1071 36.6238ZM29.8571 40.7365H34.1429V42.8423H29.8571V40.7365Z" fill="#0D99FF"/>
    </symbol>

</svg>
